<?xml version="1.0" encoding="UTF-8" standalone="no"?>

<svg
   xmlns:dc="http://purl.org/dc/elements/1.1/"
   xmlns:cc="http://creativecommons.org/ns#"
   xmlns:rdf="http://www.w3.org/1999/02/22-rdf-syntax-ns#"
   xmlns:svg="http://www.w3.org/2000/svg"
   xmlns="http://www.w3.org/2000/svg"
   version="1.1"
   width="2048"
   height="2048"
   id="svg3891">
  <defs
     id="defs3893" />
    <g
       id="layer1-6">
      <path
         d="M 100 130 L 130 100 L 1870 100 L 1900 130 L 1900 230 L 100 230 Z M 1770 230 L 1900 230 L 1900 1400 L 1770 1350 Z M 1900 1400 L 1400 1900 L 1400 1900 L 1350 1770 L 1770 1350 M 1400 1900 L 1350 1770 L 100 1770 L 100 1870 L 130 1900 Z M 230 1770 L 100 1770 L 100 230 L 240 230 Z M 600 530 L 630 500 L 1370 500 L 1400 530 L 1400 600 L 1370 630 L 630 630 L 600 600 Z M 600 930 L 630 900 L 1370 900 L 1400 930 L 1400 1000 L 1370 1030 L 630 1030 L 600 1000 Z M 600 1330 L 630 1300 L 1070 1300 L 1100 1330 L 1100 1400 L 1070 1430 L 630 1430 L 600 1400 Z"
         id="path7791"
	  />
    </g>
</svg>