<?xml version="1.0" encoding="UTF-8" standalone="no"?>

<svg
   xmlns:dc="http://purl.org/dc/elements/1.1/"
   xmlns:cc="http://creativecommons.org/ns#"
   xmlns:rdf="http://www.w3.org/1999/02/22-rdf-syntax-ns#"
   xmlns:svg="http://www.w3.org/2000/svg"
   xmlns="http://www.w3.org/2000/svg"
   version="1.1"
   width="2048"
   height="2048"
   id="svg3891">
  <defs
     id="defs3893" />
    <g
       id="layer1-6">
      <path
         d="M 1884 1200 L 1731 1062 V 939 L 1884 801 C 1900 786 1905 764 1897 744 L 1815 547 C 1807 528 1788 516 1767 517 L 1561 527 L 1474 440 L 1484 234 C 1485 213 1473 194 1453 185 L 1256 104 C 1237 96 1214 101 1200 116 L 1062 269 H 939 L 801 116 C 786 101 764 96 744 104 L 547 185 C 528 194 516 213 517 234 L 527 440 L 440 527 L 234 517 C 213 515 194 528 185 547 L 104 744 C 96 764 101 786 116 801 L 269 939 V 1062 L 116 1200 C 101 1214 96 1237 104 1256 L 185 1453 C 194 1473 213 1485 234 1484 L 440 1474 L 527 1561 L 517 1767 C 516 1788 528 1807 547 1815 L 744 1897 C 764 1905 786 1900 801 1884 L 939 1731 H 1062 L 1200 1884 C 1210 1895 1223 1901 1237 1901 C 1244 1901 1250 1899 1256 1897 L 1453 1815 C 1473 1807 1485 1788 1484 1767 L 1474 1561 L 1561 1474 L 1767 1484 C 1788 1485 1807 1473 1815 1453 L 1897 1256 C 1905 1237 1900 1214 1884 1200 Z M 1736 1383 L 1544 1373 C 1530 1372 1516 1377 1506 1387 L 1387 1506 C 1377 1516 1372 1530 1373 1544 L 1383 1736 L 1251 1791 L 1121 1648 C 1112 1638 1098 1632 1084 1632 H 916 C 902 1632 889 1638 879 1648 L 750 1791 L 618 1736 L 628 1544 C 629 1530 623 1516 613 1506 L 495 1387 C 485 1377 471 1372 457 1373 L 264 1383 L 210 1251 L 353 1121 C 363 1112 369 1098 369 1084 V 916 C 369 902 363 889 353 879 L 210 750 L 264 618 L 457 628 C 471 629 485 623 495 613 L 613 495 C 623 485 629 471 628 457 L 618 264 L 750 210 L 879 353 C 889 363 902 369 916 369 H 1084 C 1098 369 1112 363 1121 353 L 1251 210 L 1383 264 L 1373 457 C 1372 471 1377 485 1387 495 L 1506 613 C 1516 623 1530 629 1544 628 L 1736 618 L 1791 750 L 1648 879 C 1638 889 1632 902 1632 916 V 1084 C 1632 1098 1638 1112 1648 1121 L 1791 1251 L 1736 1383 Z M 1000 650 A 10 10 90 0 0 1000 1350 A 10 10 90 0 0 1000 650 M 1000 750 A 10 10 90 0 1 1000 1250 A 10 10 90 0 1 1000 750"
         id="path7791"
	  />
    </g>
</svg>