<?xml version="1.0" encoding="UTF-8" standalone="no"?>
<svg
   width="2.3232715mm"
   height="4.7128501mm"
   viewBox="0 0 2.3232715 4.7128501"
   version="1.1"
   id="svg6816"
   inkscape:version="1.2.1 (9c6d41e410, 2022-07-14)"
   sodipodi:docname="business_actor.svg"
   xmlns:inkscape="http://www.inkscape.org/namespaces/inkscape"
   xmlns:sodipodi="http://sodipodi.sourceforge.net/DTD/sodipodi-0.dtd"
   xmlns="http://www.w3.org/2000/svg"
   xmlns:svg="http://www.w3.org/2000/svg">
  <sodipodi:namedview
     id="namedview6818"
     pagecolor="#ffffff"
     bordercolor="#666666"
     borderopacity="1.0"
     inkscape:pageshadow="2"
     inkscape:pageopacity="0.0"
     inkscape:pagecheckerboard="0"
     inkscape:document-units="mm"
     showgrid="false"
     inkscape:zoom="23.718069"
     inkscape:cx="-6.49294"
     inkscape:cy="0.52702435"
     inkscape:window-width="1419"
     inkscape:window-height="1040"
     inkscape:window-x="301"
     inkscape:window-y="0"
     inkscape:window-maximized="0"
     inkscape:current-layer="g5648"
     fit-margin-top="0"
     fit-margin-left="0"
     fit-margin-right="0"
     fit-margin-bottom="0"
     inkscape:showpageshadow="2"
     inkscape:deskcolor="#d1d1d1" />
  <defs
     id="defs6813">
    <clipPath
       clipPathUnits="userSpaceOnUse"
       id="clipPath1">
      <path
         d="M 9,11 H 131 V 68 H 9 Z"
         id="path927" />
    </clipPath>
    <clipPath
       clipPathUnits="userSpaceOnUse"
       id="clipPath6791">
      <path
         d="M 9,11 H 131 V 68 H 9 Z"
         id="path6789" />
    </clipPath>
    <clipPath
       clipPathUnits="userSpaceOnUse"
       id="clipPath6795">
      <path
         d="M 9,11 H 131 V 68 H 9 Z"
         id="path6793" />
    </clipPath>
    <clipPath
       clipPathUnits="userSpaceOnUse"
       id="clipPath6799">
      <path
         d="M 9,11 H 131 V 68 H 9 Z"
         id="path6797" />
    </clipPath>
    <clipPath
       clipPathUnits="userSpaceOnUse"
       id="clipPath6803">
      <path
         d="M 9,11 H 131 V 68 H 9 Z"
         id="path6801" />
    </clipPath>
  </defs>
  <g
     inkscape:label="Calque 1"
     inkscape:groupmode="layer"
     id="layer1"
     transform="translate(-20.591201,-20.489729)">
    <g
       id="g6986">
      <g
         id="g5648"
         style="fill:#ffffb5;fill-opacity:1"
         transform="matrix(0.26458333,0,0,0.26458333,-10.52633,16.388687)">
        <path
           id="line966"
           clip-path="url(#clipPath1)"
           style="font-family:'Segoe UI';stroke:#000000;text-rendering:optimizeLegibility;stroke-width:0.80000002;stroke-dasharray:none"
           transform="translate(2)"
           d="m 116,25 h 8 m -4,3 4,5 m -4,-5 -4,5 m 4,-11 v 6 m 3,-9 a 3,3 0 0 1 -3,3 3,3 0 0 1 -3,-3 3,3 0 0 1 3,-3 3,3 0 0 1 3,3 z" />
      </g>
    </g>
  </g>
</svg>
