<?xml version="1.0" encoding="UTF-8" standalone="no"?>

<svg
   xmlns:dc="http://purl.org/dc/elements/1.1/"
   xmlns:cc="http://creativecommons.org/ns#"
   xmlns:rdf="http://www.w3.org/1999/02/22-rdf-syntax-ns#"
   xmlns:svg="http://www.w3.org/2000/svg"
   xmlns="http://www.w3.org/2000/svg"
   version="1.1"
   width="2048"
   height="2048"
   id="svg3891">
  <defs
     id="defs3893" />
    <g
       id="layer1-6">
      <path
         d="M 100 100 L 1900 100 L 1900 250 L 100 250 Z M 1760 250 L 1900 250 L 1900 1400 L 1750 1340 Z M 1900 1400 L 1400 1900 L 1400 1900 L 1340 1750 L 1750 1340 M 1400 1900 L 1340 1750 L 100 1750 L 100 1900 V 1900 Z M 250 1750 L 100 1750 L 100 250 L 260 250 Z M 600 500 L 1400 500 L 1400 650 L 600 650 Z M 600 900 L 1400 900 L 1400 1050 L 600 1050 Z M 600 1300 L 1100 1300 L 1100 1450 L 600 1450 Z"
         id="path7791"
	  />
    </g>
</svg>