<?xml version="1.0" encoding="UTF-8" standalone="no"?>

<svg
   xmlns:dc="http://purl.org/dc/elements/1.1/"
   xmlns:cc="http://creativecommons.org/ns#"
   xmlns:rdf="http://www.w3.org/1999/02/22-rdf-syntax-ns#"
   xmlns:svg="http://www.w3.org/2000/svg"
   xmlns="http://www.w3.org/2000/svg"
   version="1.1"
   width="2048"
   height="2048"
   id="svg3891">
  <defs
     id="defs3893" />
    <g
       id="layer1-6">
      <path
         d="M 1000 1400 C 779 1400 600 1221 600 1000 S 779 600 1000 600 S 1400 779 1400 1000 S 1221 1400 1000 1400 Z M 1000 760 C 868 760 760 868 760 1000 S 868 1240 1000 1240 S 1240 1132 1240 1000 S 1132 760 1000 760 Z M 1847 767 C 1833 762 1773 760 1773 760 C 1729 760 1693 724 1693 680 C 1693 658 1702 637 1718 622 C 1718 622 1757 579 1763 565 C 1795 505 1786 428 1735 378 L 1622 265 C 1591 234 1550 218 1510 218 C 1484 218 1458 225 1435 237 C 1421 243 1379 282 1379 282 C 1365 298 1344 307 1320 307 C 1276 307 1240 271 1240 227 V 200 C 1240 183 1238 167 1233 153 C 1213 87 1151 40 1080 40 H 920 C 849 40 787 87 767 153 C 762 167 760 183 760 200 V 227 C 760 271 724 307 680 307 C 656 307 635 298 621 282 C 621 282 579 243 565 237 C 542 225 516 218 490 218 C 450 218 409 234 378 265 L 265 378 C 214 428 205 505 237 565 C 243 579 282 622 282 622 C 298 637 307 658 307 680 C 307 724 271 760 227 760 C 227 760 167 762 153 767 C 87 787 40 849 40 920 V 1080 C 40 1151 87 1213 153 1233 C 167 1238 227 1240 227 1240 C 271 1240 307 1276 307 1320 C 307 1342 298 1363 282 1378 C 282 1378 243 1421 237 1435 C 205 1495 214 1572 265 1622 L 378 1735 C 409 1766 450 1782 490 1782 C 516 1782 542 1775 565 1763 C 579 1757 621 1718 621 1718 C 635 1702 656 1693 680 1693 C 724 1693 760 1729 760 1773 V 1800 C 760 1817 762 1833 767 1847 C 787 1913 849 1960 920 1960 H 1080 C 1151 1960 1213 1913 1233 1847 C 1238 1833 1240 1817 1240 1800 V 1773 C 1240 1729 1276 1693 1320 1693 C 1344 1693 1365 1702 1379 1718 C 1379 1718 1421 1757 1435 1763 C 1458 1775 1484 1782 1510 1782 C 1550 1782 1591 1766 1622 1735 L 1735 1622 C 1786 1572 1795 1495 1763 1435 C 1757 1421 1718 1378 1718 1378 C 1702 1363 1693 1342 1693 1320 C 1693 1276 1729 1240 1773 1240 C 1773 1240 1833 1238 1847 1233 C 1913 1213 1960 1151 1960 1080 V 920 C 1960 849 1913 787 1847 767 Z M 1800 1040 C 1800 1062 1783 1079 1762 1080 C 1634 1086 1533 1191 1533 1320 C 1533 1380 1556 1438 1596 1482 C 1602 1490 1606 1498 1606 1509 C 1606 1520 1602 1529 1596 1536 L 1538 1594 C 1530 1601 1521 1606 1510 1606 C 1499 1606 1490 1602 1482 1595 C 1439 1555 1381 1533 1320 1533 C 1191 1533 1086 1635 1079 1762 C 1078 1783 1062 1800 1040 1800 H 960 C 938 1800 922 1783 921 1762 C 914 1635 809 1533 680 1533 C 619 1533 561 1555 518 1595 C 510 1602 501 1606 490 1606 C 479 1606 470 1601 462 1594 L 404 1536 C 398 1529 394 1520 394 1509 C 394 1498 398 1490 404 1482 C 444 1438 467 1380 467 1320 C 467 1191 366 1086 238 1080 C 217 1079 200 1062 200 1040 V 960 C 200 938 218 920 240 920 C 366 914 467 808 467 680 C 467 621 445 564 406 520 C 406 520 405 519 405 518 C 398 512 394 502 394 491 C 394 480 398 470 406 462 L 461 406 H 462 C 469 398 478 394 490 394 C 502 394 511 398 518 406 C 562 445 620 467 680 467 C 808 467 913 366 920 240 C 920 218 938 200 960 200 H 1040 C 1062 200 1080 218 1080 240 C 1087 366 1192 467 1320 467 C 1380 467 1438 445 1482 406 C 1489 398 1498 394 1510 394 C 1522 394 1531 398 1538 406 H 1539 L 1594 462 C 1602 470 1606 480 1606 491 C 1606 502 1602 512 1595 518 C 1595 519 1594 520 1594 520 C 1555 564 1533 621 1533 680 C 1533 808 1634 914 1760 920 C 1782 920 1800 938 1800 960 V 1040 Z"
         id="path7791"
	  />
    </g>
</svg>