<?xml version="1.0" encoding="UTF-8" standalone="no"?>

<svg
   xmlns:dc="http://purl.org/dc/elements/1.1/"
   xmlns:cc="http://creativecommons.org/ns#"
   xmlns:rdf="http://www.w3.org/1999/02/22-rdf-syntax-ns#"
   xmlns:svg="http://www.w3.org/2000/svg"
   xmlns="http://www.w3.org/2000/svg"
   version="1.1"
   width="2048"
   height="2048"
   id="svg3891">
  <defs
     id="defs3893" />
    <g
       id="layer1-6">
      <path
         d="M 100 100 L 1900 100 L 1900 230 L 100 230 Z M 1770 230 L 1900 230 L 1900 1400 L 1770 1350 Z M 1900 1400 L 1400 1900 L 1400 1900 L 1350 1770 L 1770 1350 M 1400 1900 L 1350 1770 L 100 1770 L 100 1900 V 1900 Z M 230 1770 L 100 1770 L 100 230 L 240 230 Z M 600 500 L 1400 500 L 1400 630 L 600 630 Z M 600 900 L 1400 900 L 1400 1030 L 600 1030 Z M 600 1300 L 1100 1300 L 1100 1430 L 600 1430 Z"
         id="path7791"
	  />
    </g>
</svg>