<?xml version="1.0" encoding="UTF-8" standalone="no"?>
<svg width="1000" height="1000" viewBox="0 0 1000 1000" xmlns="http://www.w3.org/2000/svg">
  <path d="M300 500L500 500 500 350 550 350 550 500 750 500 750 550 550 550 550 691.2 760.1 953.9 721.1 985.1 525 740 335.5 976.9 307 972.5 301.7 959.1 296.5 945.7 500 691.2 500 550 300 550 300 500ZM350 285.3L585.3 50.1 525 50A174.2 174.2 0 0 0 437.9 73.2 175.2 175.2 0 0 0 351.6 201.1L351.6 201.1 351.6 201.1A176.1 176.1 0 0 0 350 225L350 285.3Z" fill="black" />
</svg>
