<?xml version="1.0" encoding="UTF-8" standalone="no"?>

<svg
   xmlns:dc="http://purl.org/dc/elements/1.1/"
   xmlns:cc="http://creativecommons.org/ns#"
   xmlns:rdf="http://www.w3.org/1999/02/22-rdf-syntax-ns#"
   xmlns:svg="http://www.w3.org/2000/svg"
   xmlns="http://www.w3.org/2000/svg"
   version="1.1"
   width="2048"
   height="2048"
   id="svg3891">
  <defs
     id="defs3893" />
    <g
       id="layer1-6">
      <path
         d="M 1800 200 L 1500 1100 L 1368 1056 L 1581 419 L 944 632 L 900 500 Z M 350 1550 L 450 1450 L 550 1550 L 450 1650 Z M 550 1350 L 650 1250 L 750 1350 L 650 1450 Z M 750 1150 L 850 1050 L 950 1150 L 850 1250 Z M 950 950 L 1050 850 L 1150 950 L 1050 1050 Z M 1150 750 L 1250 650 L 1350 750 L 1250 850 Z M 1350 550 L 1450 450 L 1550 550 L 1450 650 Z M 250 1650 L 350 1750 L 250 1850 L 149 1750 Z"
         id="path7791"
	  />
    </g>
</svg>