<?xml version="1.0" encoding="UTF-8" standalone="no"?>

<svg
   xmlns:dc="http://purl.org/dc/elements/1.1/"
   xmlns:cc="http://creativecommons.org/ns#"
   xmlns:rdf="http://www.w3.org/1999/02/22-rdf-syntax-ns#"
   xmlns:svg="http://www.w3.org/2000/svg"
   xmlns="http://www.w3.org/2000/svg"
   version="1.1"
   height="2048"
   width="2048"
   id="svg3891">
  <defs
     id="defs3893" />
    <g
       id="layer1-6">
      <path
         d="M 1876.6602 106.36523 L 1036.1172 330.43555 L 1166.3926 523.57227 L 171.33984 1194.748 L 222.73828 1270.9316 L 1217.7891 599.75586 L 1344.4824 787.60156 L 1876.6445 106.375 L 1876.6602 106.36523 z M 1875.0156 778.17773 L 1034.4727 1002.2383 L 1342.8398 1459.4062 L 1875 778.1875 L 1875.0156 778.17773 z M 1037.877 1280.9551 L 909.35352 1367.6445 L 960.75195 1443.8379 L 1089.2754 1357.1582 L 1037.877 1280.9551 z M 780.82227 1454.3359 L 652.29102 1541.0273 L 703.6875 1617.2383 L 832.2207 1530.5391 L 780.82227 1454.3359 z M 507.1875 1638.9121 L 378.65625 1725.6113 L 430.05273 1801.8145 L 558.58594 1715.0957 L 507.1875 1638.9121 z M 250.13281 1812.293 L 171.33984 1865.4492 L 222.73828 1941.6426 L 301.5293 1888.4961 L 250.13281 1812.293 z "
         id="path7791"
      />
    </g>
</svg>