<?xml version="1.0" encoding="UTF-8" standalone="no"?>
<svg
   fill-opacity="1"
   color-rendering="auto"
   color-interpolation="auto"
   text-rendering="auto"
   stroke="#000000"
   stroke-linecap="square"
   stroke-miterlimit="10"
   shape-rendering="auto"
   stroke-opacity="1"
   fill="#000000"
   stroke-dasharray="none"
   font-weight="normal"
   stroke-width="1"
   viewBox="0 0 15 11"
   font-family="Dialog"
   font-style="normal"
   stroke-linejoin="miter"
   font-size="12px"
   stroke-dashoffset="0"
   image-rendering="auto"
   version="1.1"
   id="svg1024"
   sodipodi:docname="business_collaboration.svg"
   inkscape:version="1.2.1 (9c6d41e410, 2022-07-14)"
   width="15"
   height="11"
   xmlns:inkscape="http://www.inkscape.org/namespaces/inkscape"
   xmlns:sodipodi="http://sodipodi.sourceforge.net/DTD/sodipodi-0.dtd"
   xmlns="http://www.w3.org/2000/svg"
   xmlns:svg="http://www.w3.org/2000/svg">
  <sodipodi:namedview
     id="namedview1026"
     pagecolor="#ffffff"
     bordercolor="#666666"
     borderopacity="1.0"
     inkscape:pageshadow="2"
     inkscape:pageopacity="0.0"
     inkscape:pagecheckerboard="0"
     showgrid="false"
     inkscape:zoom="36.075731"
     inkscape:cx="8.0802243"
     inkscape:cy="6.74969"
     inkscape:window-width="1419"
     inkscape:window-height="1040"
     inkscape:window-x="356"
     inkscape:window-y="9"
     inkscape:window-maximized="0"
     inkscape:current-layer="g7424"
     fit-margin-top="0"
     fit-margin-left="0"
     fit-margin-right="0"
     fit-margin-bottom="0"
     inkscape:showpageshadow="2"
     inkscape:deskcolor="#d1d1d1" />
  <!--Generated by Archi with Batik SVG Generator-->
  <defs
     id="genericDefs">
    <defs
       id="defs1">
      <clipPath
         clipPathUnits="userSpaceOnUse"
         id="clipPath1">
        <path
           d="M 9,11 H 131 V 68 H 9 Z"
           id="path927" />
      </clipPath>
      <clipPath
         clipPathUnits="userSpaceOnUse"
         id="clipPath2">
        <path
           d="M 162,9 H 284 V 66 H 162 Z"
           id="path930" />
      </clipPath>
      <clipPath
         clipPathUnits="userSpaceOnUse"
         id="clipPath3">
        <path
           d="M 306,9 H 428 V 66 H 306 Z"
           id="path933" />
      </clipPath>
      <clipPath
         clipPathUnits="userSpaceOnUse"
         id="clipPath4">
        <path
           d="M 450,11 H 572 V 68 H 450 Z"
           id="path936" />
      </clipPath>
      <clipPath
         clipPathUnits="userSpaceOnUse"
         id="clipPath5">
        <path
           d="m 9,96 h 122 v 57 H 9 Z"
           id="path939" />
      </clipPath>
      <clipPath
         clipPathUnits="userSpaceOnUse"
         id="clipPath6">
        <path
           d="m 162,96 h 122 v 57 H 162 Z"
           id="path942" />
      </clipPath>
      <clipPath
         clipPathUnits="userSpaceOnUse"
         id="clipPath7">
        <path
           d="m 306,96 h 122 v 57 H 306 Z"
           id="path945" />
      </clipPath>
      <clipPath
         clipPathUnits="userSpaceOnUse"
         id="clipPath8">
        <path
           d="m 450,96 h 122 v 57 H 450 Z"
           id="path948" />
      </clipPath>
    </defs>
  </defs>
  <g
     id="g7424"
     transform="translate(-396.5,-16.5)"
     style="fill:#ffffb5;fill-opacity:1">
    <path
       id="circle982"
       clip-path="url(#clipPath3)"
       style="font-family:'Segoe UI';fill:#ffffb5;stroke-linecap:butt;text-rendering:optimizeLegibility;fill-opacity:1;stroke-width:0.8;stroke-dasharray:none"
       d="m 423,22 a 5,5 0 0 1 -5,5 5,5 0 0 1 -5,-5 5,5 0 0 1 5,-5 5,5 0 0 1 5,5 z m -4,0 a 5,5 0 0 1 -5,5 5,5 0 0 1 -5,-5 5,5 0 0 1 5,-5 5,5 0 0 1 5,5 z"
       transform="translate(-12)" />
  </g>
</svg>
