<?xml version="1.0" encoding="UTF-8" standalone="no"?>
<svg width="18" height="18" viewBox="0 0 18 18" fill="none" xmlns="http://www.w3.org/2000/svg">
    <path
       d="M 6.5 6 A 1 1 90 0 0 17.5 6 A 1 1 90 0 0 6.5 6 M 9 6 A 1 1 90 0 0 15 6 A 1 1 90 0 0 9 6 M 11.5 6.5 A 1 1 90 0 0 12.5 6.5 A 1 1 90 0 0 12.5 5.5 A 1 1 90 0 0 11.5 5.5 A 1 1 90 0 0 11.5 6.5" fill="#F5DEAA" stroke="black" stroke-width="0.8" />
    <path
       d="M 8 10 L 7.5 14 L 4 10.5 Z M 5.5 11.5 Q 2 14 3 17.5 L 4 17.5 Q 3 14 6.5 12.5" fill="black" stroke="black" stroke-width="0.8" />
</svg>