<?xml version="1.0" encoding="UTF-8" standalone="no"?>
<svg width="20" height="20" viewBox="0 0 20 20" fill="none" xmlns="http://www.w3.org/2000/svg">
    <path
       d="m 7.5 6.5 A 1 1 90 0 0 19.5 6.5 A 1 1 90 0 0 7.5 6.5 M 10 6.5 A 1 1 90 0 0 17 6.5 A 1 1 90 0 0 10 6.5 M 13 7 A 1 1 90 0 0 14 7 A 1 1 90 0 0 14 6 A 1 1 90 0 0 13 6 A 1 1 90 0 0 13 7" fill="#F5DEAA" stroke="black" stroke-width="0.8" />
    <path
       d="M 9 11 L 8.5 15.5 L 4.5 11.5 Z M 6 13 Q 2.5 15 6 19.5 Q 5 15 7 14" fill="black" stroke="black" stroke-width="0.8" />
</svg>