<?xml version="1.0" encoding="UTF-8" standalone="no"?>

<svg
   xmlns:dc="http://purl.org/dc/elements/1.1/"
   xmlns:cc="http://creativecommons.org/ns#"
   xmlns:rdf="http://www.w3.org/1999/02/22-rdf-syntax-ns#"
   xmlns:svg="http://www.w3.org/2000/svg"
   xmlns="http://www.w3.org/2000/svg"
   version="1.1"
   width="2048"
   height="2048"
   id="svg3891">
  <defs
     id="defs3893" />
    <g
       id="layer1-6">
      <path
         d="M 100 1800 L 200 1900 L 400 1700 L 300 1600 Z M 1900 200 L 1800 100 L 1570 330 L 1670 430 Z M 1680 1130 L 1580 1230 L 1800 1450 L 1900 1350 Z M 1220 1360 A 10 10 90 0 0 1220 200 A 10 10 90 0 0 1220 1360 Z M 1220 1180 A 10 10 90 0 1 1220 380 A 10 10 90 0 1 1220 1180 Z M 810 1190 L 120 1420 L 580 1880 L 810 1190"
         id="path7791"
	  />
    </g>
</svg>